<svg width="887" height="848" viewBox="0 0 887 848" fill="none" xmlns="http://www.w3.org/2000/svg">
<g clip-path="url(#clip0_52_2)">
<path d="M0 321.906L275.399 525.773L312.172 513.633L92.5585 351.966L0 321.906Z" fill="#FF2E25"/>
<path d="M443.5 0.0109863L551.535 324.817L443.5 468.547V0.0109863Z" fill="#FF2E25"/>
<path d="M443.5 0L341.096 322.807L363.707 354.68L443.5 97.7069V0Z" fill="#FF2E25"/>
<path d="M887 321.906L615.177 525.773L443.5 468.547L887 321.906Z" fill="#FF2E25"/>
<path d="M887 321.906H550.535L528.118 355.708L798.331 355.664L887 321.906Z" fill="#FF2E25"/>
<path d="M715.323 847.668L443.5 647.45V468.547L715.323 847.668Z" fill="#FF2E25"/>
<path d="M715.323 847.668L615.177 525.773L577.783 513.09L659.947 770.694L715.323 847.668Z" fill="#FF2E25"/>
<path d="M171.678 847.668L275.4 525.773L443.5 468.547L171.678 847.668Z" fill="#FF2E25"/>
<path d="M171.678 847.671L443.5 647.311V608.672L224.804 767.638L171.678 847.671Z" fill="#FF2E25"/>
<path d="M0 321.906H348.484L443.5 468.547L0 321.906Z" fill="#FF2E25"/>
</g>
<defs>
<clipPath id="clip0_52_2">
<rect width="887" height="847.668" fill="white"/>
</clipPath>
</defs>
</svg>
